<?xml version="1.0" standalone="no"?>
<!DOCTYPE svg PUBLIC "-//W3C//DTD SVG 20010904//EN"
 "http://www.w3.org/TR/2001/REC-SVG-20010904/DTD/svg10.dtd">
<svg version="1.0" xmlns="http://www.w3.org/2000/svg"
 width="291.000000pt" height="291.000000pt" viewBox="0 0 291.000000 291.000000"
 preserveAspectRatio="xMidYMid meet">
<metadata>
Created by potrace 1.11, written by Peter Selinger 2001-2013
</metadata>
<g transform="translate(0.000000,291.000000) scale(0.100000,-0.100000)"
fill="#000000" stroke="none">
<path d="M1470 2773 c0 -7 0 -16 0 -20 1 -5 13 -7 28 -6 19 2 23 0 13 -6 -23
-14 -75 4 -64 23 3 6 0 5 -8 -2 -12 -11 -12 -14 0 -21 9 -6 -8 -8 -42 -6 -31
2 -61 6 -66 9 -5 4 -13 1 -17 -5 -5 -8 -3 -9 7 -4 8 5 11 5 7 0 -4 -4 -3 -13
2 -20 7 -8 5 -12 -5 -12 -8 0 -12 4 -9 8 2 4 -5 14 -16 22 -11 7 -17 16 -14
20 3 3 -1 4 -10 3 -8 -1 -19 -5 -22 -9 -12 -12 -26 -8 -18 5 4 7 3 8 -4 4 -6
-4 -9 -13 -5 -22 5 -13 8 -13 23 1 14 13 18 13 23 2 5 -13 1 -15 -40 -19 -10
0 -21 -6 -25 -11 -4 -7 -12 -6 -22 2 -16 14 -40 6 -30 -10 3 -5 10 -6 16 -3 7
4 8 2 4 -4 -8 -13 -46 5 -46 21 0 4 4 5 10 2 6 -4 7 1 3 11 -4 10 -8 13 -10 7
-3 -7 -12 -9 -21 -6 -13 4 -14 3 -3 -5 7 -5 11 -14 7 -20 -3 -6 0 -13 6 -15 9
-4 10 -6 1 -6 -6 -1 -15 3 -18 9 -4 6 -17 4 -35 -5 -31 -16 -54 -20 -32 -6 10
6 7 10 -10 13 -16 3 -25 0 -25 -8 0 -7 5 -10 10 -7 6 3 7 1 3 -6 -4 -6 -11 -9
-16 -6 -4 3 -10 -1 -13 -7 -3 -10 -8 -10 -18 1 -12 12 -12 13 0 6 9 -5 12 -4
7 3 -4 7 -2 12 3 12 6 0 11 5 11 12 0 6 -7 4 -18 -5 -10 -10 -22 -14 -27 -10
-4 5 -2 -2 4 -15 9 -18 9 -22 -1 -20 -7 2 -12 -2 -11 -8 1 -6 -4 -11 -12 -11
-8 0 -12 4 -9 9 3 4 0 8 -6 8 -6 0 -8 5 -4 12 5 7 3 8 -5 4 -7 -5 -10 -14 -8
-20 7 -17 -10 -43 -20 -33 -4 5 -1 12 6 16 9 6 10 11 2 15 -6 4 -11 3 -11 -2
0 -9 -7 -11 -58 -15 -26 -2 -30 -4 -17 -13 18 -13 19 -30 3 -40 -8 -5 -9 -2
-5 10 4 9 3 15 -2 11 -5 -3 -12 1 -15 7 -3 7 -3 0 0 -17 l6 -30 -21 23 c-19
22 -20 23 -18 4 0 -12 6 -18 12 -15 5 3 5 0 -1 -6 -9 -9 -17 -10 -31 -2 -15 8
-20 7 -20 -4 0 -8 4 -12 8 -9 4 2 10 0 13 -5 7 -10 -20 -9 -30 2 -11 10 -24 8
-24 -4 0 -5 5 -7 10 -4 6 3 10 2 10 -4 0 -15 -23 -26 -28 -13 -2 8 -8 7 -19
-3 -8 -8 -19 -12 -25 -9 -7 4 -8 2 -4 -4 4 -7 2 -12 -5 -12 -7 0 -10 -3 -7 -6
4 -3 17 2 30 10 20 13 25 14 25 2 0 -9 -6 -12 -16 -8 -14 5 -14 4 -1 -14 8
-10 8 -14 2 -8 -16 13 -57 7 -73 -12 -13 -15 -3 -37 13 -28 7 4 8 2 4 -5 -4
-6 -11 -9 -16 -6 -11 7 -31 -20 -22 -31 4 -4 -2 -2 -13 6 -11 8 -23 20 -27 25
-12 15 -9 -4 3 -27 7 -13 7 -18 1 -14 -17 10 -25 -14 -10 -31 12 -15 11 -15
-9 -2 -20 12 -21 15 -7 30 11 12 12 19 4 24 -6 4 -14 4 -17 1 -4 -3 0 -6 7 -6
8 0 -3 -16 -23 -35 -35 -33 -42 -53 -24 -66 4 -3 -3 -10 -16 -16 -19 -9 -24
-8 -24 3 0 8 6 13 13 10 8 -3 11 0 7 10 -4 11 -9 12 -19 3 -7 -6 -13 -14 -12
-17 5 -18 -15 -53 -27 -48 -9 3 -12 0 -8 -9 3 -8 8 -13 12 -10 4 2 8 -2 8 -10
0 -8 -4 -12 -8 -10 -3 3 -12 -2 -19 -10 -7 -8 -9 -15 -5 -15 4 0 2 -6 -4 -13
-6 -8 -7 -18 -3 -22 4 -5 2 -5 -5 -1 -6 3 -17 -2 -23 -11 -8 -14 -12 -15 -17
-5 -3 9 -10 5 -19 -13 -16 -31 -19 -49 -3 -22 5 9 15 17 20 17 6 0 3 -7 -5
-16 -9 -8 -13 -20 -10 -26 4 -6 -1 -8 -14 -4 -12 4 -23 2 -28 -5 -4 -7 -3 -9
4 -5 6 3 16 -3 22 -15 8 -14 8 -19 1 -15 -6 4 -16 -2 -23 -14 -7 -11 -20 -20
-28 -20 -9 0 -11 -3 -4 -8 6 -4 13 -15 17 -24 4 -12 2 -15 -8 -11 -8 3 -12 10
-8 16 3 5 1 7 -5 3 -5 -3 -13 0 -16 6 -3 7 -3 1 -1 -14 2 -15 7 -32 10 -38 4
-6 1 -17 -5 -25 -9 -11 -9 -15 -1 -15 6 0 11 -5 11 -11 0 -8 -5 -8 -15 1 -12
10 -13 16 -4 27 10 11 9 12 -5 7 -20 -8 -20 -14 0 -42 9 -13 13 -26 10 -29 -3
-4 -6 -1 -6 4 0 6 -8 10 -17 8 -10 -1 -17 -8 -16 -14 2 -6 -1 -11 -6 -11 -5 0
-9 -10 -10 -22 -1 -43 -4 -58 -13 -58 -5 0 -6 -4 -3 -10 3 -5 1 -10 -4 -10 -6
0 -11 -5 -11 -12 0 -20 30 15 35 41 2 13 9 29 16 37 9 11 9 14 -1 14 -9 0 -10
3 -1 13 6 8 7 18 3 22 -4 5 -2 5 5 1 7 -4 10 -13 6 -21 -3 -9 1 -15 8 -15 8 0
5 -6 -6 -14 -17 -12 -17 -16 -5 -30 11 -15 11 -17 -1 -14 -8 2 -13 -4 -13 -14
1 -10 -2 -15 -8 -12 -5 3 -6 -5 -2 -20 4 -16 2 -26 -5 -26 -6 0 -9 6 -7 13 1
6 1 9 -1 4 -3 -4 -9 -4 -15 -1 -6 4 -5 -3 2 -15 9 -18 8 -28 -9 -56 -11 -19
-15 -34 -9 -32 6 1 13 -4 15 -11 3 -7 1 -11 -4 -10 -4 2 -10 -1 -11 -7 -2 -5
-9 -16 -15 -23 -8 -10 -7 -12 4 -10 8 2 13 -3 11 -10 -1 -8 2 -11 7 -8 11 7
20 -14 14 -32 -3 -6 -10 -10 -16 -6 -7 3 -1 -5 13 -17 17 -15 19 -20 7 -16
-12 5 -17 1 -17 -14 0 -13 -4 -18 -12 -13 -10 5 -10 4 -1 -6 9 -9 9 -19 2 -34
-10 -20 -10 -20 5 -2 9 10 13 23 9 29 -3 6 -1 7 5 3 6 -3 12 2 14 11 3 15 5
14 10 -4 4 -14 2 -22 -6 -20 -6 1 -11 -11 -12 -26 -1 -20 3 -26 12 -23 21 8
17 -2 -5 -14 -17 -9 -19 -7 -16 10 2 12 0 18 -6 15 -5 -4 -7 -11 -4 -16 4 -5
0 -9 -7 -9 -9 -1 -8 -4 3 -10 11 -6 15 -21 13 -50 -1 -22 2 -40 7 -40 5 0 9
-7 9 -16 0 -8 -5 -12 -11 -8 -6 3 -4 -4 4 -17 8 -13 13 -32 12 -41 -2 -10 1
-18 6 -18 5 0 7 12 3 27 -3 16 -6 35 -6 43 0 8 -2 22 -5 30 -11 28 -11 40 -1
46 6 4 5 10 -3 16 -11 8 -11 9 1 5 8 -2 15 -8 15 -13 0 -5 4 -15 9 -22 4 -7 5
-16 2 -19 -3 -4 -6 -1 -6 6 0 7 -5 9 -10 6 -8 -5 -7 -11 1 -21 6 -7 9 -20 6
-27 -3 -8 -1 -20 4 -28 7 -12 9 -12 9 0 0 8 3 11 6 8 4 -4 1 -13 -6 -22 -9
-11 -9 -15 -1 -15 9 0 9 -5 1 -21 -7 -11 -9 -23 -6 -26 3 -3 8 2 12 11 3 9 11
13 16 10 6 -4 5 -10 -3 -14 -10 -7 -10 -11 1 -24 14 -18 8 -32 -9 -21 -6 3 -9
11 -6 16 4 5 2 9 -4 9 -5 0 -9 -9 -8 -19 0 -11 4 -19 7 -19 25 2 49 -29 42
-54 -1 -5 3 -8 9 -8 5 0 7 -5 4 -10 -4 -6 -11 -8 -16 -5 -5 4 -9 1 -9 -5 0 -6
10 -8 24 -4 16 4 25 1 30 -11 3 -9 2 -14 -3 -10 -5 3 -11 2 -14 -2 -2 -5 -2
-3 -1 4 2 7 -3 10 -12 6 -30 -11 -13 -28 26 -24 10 1 6 -6 -10 -20 -20 -18
-21 -21 -5 -15 22 9 65 15 65 10 0 -2 -10 -8 -21 -15 -17 -9 -20 -8 -14 2 5 7
4 10 -3 5 -6 -4 -8 -14 -5 -23 4 -11 3 -14 -5 -9 -8 5 -10 2 -5 -9 5 -13 7
-14 14 -3 8 12 13 4 10 -15 -1 -4 8 -3 18 3 14 7 22 7 27 -2 4 -7 3 -8 -4 -4
-6 3 -16 -3 -22 -14 -8 -15 -8 -20 2 -18 8 2 12 -9 12 -30 l0 -33 17 23 c15
19 20 21 31 10 11 -11 9 -12 -7 -6 -11 4 -17 4 -13 -1 4 -4 2 -15 -5 -23 -10
-13 -9 -14 2 -7 11 6 13 4 8 -8 -4 -11 -2 -14 9 -10 11 4 12 9 3 19 -7 9 -8
14 -1 14 13 0 23 -26 16 -44 -3 -7 2 -16 12 -20 13 -5 14 -4 6 7 -9 10 -9 14
1 14 7 0 14 -9 14 -19 2 -16 -8 -23 -30 -19 -5 1 -6 -3 -2 -9 4 -7 13 -6 27 1
17 9 20 9 15 -3 -3 -8 -1 -21 4 -29 7 -11 9 -11 9 -1 0 7 5 10 10 7 8 -5 8
-11 0 -20 -8 -10 -8 -15 1 -21 8 -4 9 -3 5 4 -4 7 -1 12 9 12 9 0 13 5 10 10
-3 5 -2 10 4 10 5 0 9 -9 8 -19 0 -11 -6 -17 -12 -13 -5 3 -4 -1 2 -10 7 -8
11 -17 9 -19 -2 -2 12 -4 32 -4 36 0 37 -1 36 -38 -1 -22 2 -33 7 -26 11 19
37 19 35 0 0 -9 5 -15 13 -13 17 3 43 -17 35 -29 -3 -5 0 -9 5 -9 6 0 11 -5
11 -11 0 -8 -5 -8 -15 1 -8 7 -15 8 -15 4 0 -17 38 -35 46 -22 5 7 3 8 -6 3
-9 -5 -11 -4 -6 4 4 6 12 9 17 5 5 -3 6 -10 3 -16 -4 -6 -1 -8 7 -6 8 3 13 11
11 17 -1 7 3 9 9 6 8 -5 8 -10 0 -18 -6 -6 -11 -18 -11 -26 1 -13 2 -13 11 1
5 10 15 18 22 18 8 0 8 -3 2 -8 -5 -4 -11 -13 -13 -21 -3 -12 0 -12 12 -1 21
16 21 6 0 -14 -8 -9 -11 -16 -5 -16 5 0 17 10 25 22 15 21 15 21 12 -8 -4 -32
-3 -33 51 -37 17 -1 29 -5 26 -9 -2 -5 1 -8 7 -8 6 0 8 -5 4 -12 -4 -6 -3 -8
3 -5 5 3 22 -1 37 -9 33 -16 50 -18 41 -4 -3 6 -1 10 5 10 6 0 8 -12 5 -31 -4
-19 -2 -28 5 -24 5 3 10 15 10 25 0 10 4 22 10 25 6 4 7 -1 3 -11 -5 -13 -3
-15 8 -9 12 7 12 6 1 -7 -12 -15 -10 -19 16 -32 24 -12 29 -13 29 -1 0 8 -4
12 -8 10 -4 -3 -15 -2 -25 2 -16 6 -16 7 2 14 10 3 24 2 31 -3 7 -6 15 -3 23
9 11 17 11 17 6 0 -3 -11 0 -20 9 -24 11 -3 13 -12 9 -26 -6 -20 -6 -20 11 -4
14 15 15 20 3 34 -9 12 -9 15 -1 9 7 -4 18 -16 24 -28 7 -13 7 -18 1 -14 -6 3
-13 2 -16 -3 -4 -5 2 -8 11 -7 10 2 21 -2 25 -8 6 -8 8 -8 8 1 0 6 -4 15 -10
18 -13 8 -13 25 1 25 5 0 7 -4 4 -10 -9 -14 8 -12 25 3 12 10 12 9 1 -5 -16
-21 -6 -39 16 -31 10 4 14 2 9 -5 -3 -6 -2 -13 3 -17 6 -3 8 3 6 15 -2 11 1
23 7 26 7 4 8 2 4 -4 -4 -7 -2 -12 3 -12 6 0 10 -3 10 -7 -1 -5 -1 -15 0 -23
1 -13 2 -13 11 0 5 8 10 11 10 6 0 -5 7 -3 15 4 8 7 15 9 15 4 0 -5 4 -3 9 5
7 11 12 11 32 -2 21 -15 23 -15 36 1 16 19 7 -4 -10 -26 -8 -10 -12 -10 -18 0
-9 14 -59 20 -59 7 0 -5 10 -7 22 -5 13 1 28 -4 35 -13 10 -14 14 -13 32 8 21
24 54 23 47 -1 -1 -7 -1 -10 1 -5 3 4 9 7 14 7 6 0 8 -4 5 -8 -3 -5 1 -9 9 -9
8 0 12 4 10 8 -6 9 25 23 44 20 8 -1 10 2 5 10 -4 8 -3 10 4 5 7 -4 12 -14 12
-22 0 -8 -4 -12 -10 -9 -5 3 -10 2 -10 -4 0 -5 8 -9 19 -8 10 0 18 8 17 15 -1
8 5 17 12 19 6 3 12 0 12 -7 0 -6 -5 -8 -12 -4 -7 4 -8 3 -4 -4 4 -6 13 -9 21
-5 8 3 23 2 33 -2 28 -13 42 -14 47 -5 3 5 12 7 20 3 8 -3 15 -1 15 4 0 11
-39 11 -56 0 -7 -4 -17 0 -23 7 -10 12 -8 14 11 9 22 -4 22 -4 4 11 -11 9 -15
16 -9 16 6 0 16 -7 23 -15 9 -10 17 -12 23 -6 5 5 16 7 25 4 11 -5 13 -3 7 7
-5 8 -4 11 3 6 6 -4 8 -14 5 -24 -3 -9 -2 -14 2 -9 5 4 16 0 26 -9 16 -14 17
-14 14 3 -1 10 -9 17 -16 15 -8 -2 -11 0 -7 4 4 4 2 14 -4 23 -10 12 -8 12 8
-2 24 -20 38 -22 28 -4 -4 7 -3 9 2 4 9 -8 10 -12 13 -39 0 -6 7 -3 15 7 12
17 16 18 32 5 16 -14 16 -14 4 7 -10 15 -18 19 -26 12 -8 -6 -13 -5 -17 5 -4
11 -1 13 10 9 12 -5 14 -3 8 8 -6 11 -5 12 6 2 20 -20 50 -16 42 4 -5 15 -3
15 9 -1 24 -31 45 -28 43 5 -1 15 2 26 7 23 4 -3 8 -13 8 -23 0 -10 8 -25 18
-32 14 -11 15 -11 5 1 -13 14 -19 39 -6 27 3 -4 12 1 20 11 13 15 13 15 7 -7
-4 -16 -3 -21 5 -17 6 4 11 16 11 27 0 10 5 19 11 19 5 0 7 -4 4 -10 -3 -5 -3
-10 2 -11 4 0 16 -2 26 -4 10 -2 14 1 10 8 -4 6 0 8 10 4 14 -5 15 -3 5 13 -7
10 -16 16 -20 14 -5 -3 -6 -9 -3 -14 3 -5 1 -11 -4 -14 -11 -7 -9 13 3 32 6
11 12 10 27 -4 14 -13 22 -14 32 -5 8 6 17 8 20 5 3 -4 13 1 23 10 12 12 20
14 29 6 10 -8 13 -6 11 7 -1 12 5 17 17 15 9 -2 17 1 17 7 0 10 -19 9 -37 -2
-9 -6 -11 -3 -7 8 4 8 11 15 18 14 24 -3 37 2 31 11 -4 6 -3 10 2 9 12 -3 47
13 55 25 5 8 8 7 8 -1 0 -7 -13 -19 -30 -28 -35 -18 -38 -24 -11 -22 11 0 17
5 15 9 -5 8 11 12 29 9 5 -1 6 3 2 9 -3 5 -2 10 3 10 5 0 8 11 7 25 -2 17 1
23 8 18 17 -10 47 -11 47 -1 0 4 -6 8 -12 9 -7 0 -3 4 10 10 13 5 21 13 17 19
-8 12 27 0 36 -13 3 -5 9 0 11 11 4 13 1 19 -10 18 -8 0 -17 6 -19 14 -4 13
-3 13 6 0 10 -13 12 -13 21 0 6 9 10 11 10 3 0 -17 37 -36 45 -23 4 6 3 10 -2
9 -18 -3 -36 1 -30 8 4 3 -1 16 -10 27 -17 19 -17 20 -1 7 15 -11 19 -11 24 3
6 15 8 15 20 -1 9 -12 13 -14 14 -5 0 7 3 11 8 8 4 -2 15 2 25 9 12 8 14 15 8
20 -6 3 -11 0 -11 -7 0 -8 -5 -6 -11 5 -6 9 -16 14 -22 11 -7 -4 -8 -3 -4 2 5
5 18 9 30 9 16 0 21 6 19 20 -2 12 0 16 5 9 14 -18 43 -25 36 -9 -3 8 -10 12
-16 8 -6 -4 -7 -1 -3 6 6 9 13 8 29 -6 21 -17 21 -17 7 0 -11 15 -11 20 -1 26
7 5 13 12 13 17 2 30 32 52 44 32 5 -7 2 -8 -6 -3 -9 5 -11 4 -6 -4 12 -19 22
-4 20 28 -1 17 2 34 7 37 5 3 7 10 3 15 -3 5 0 8 8 7 7 -2 12 2 11 8 -1 7 7
10 20 8 12 -2 16 -2 10 2 -7 3 -13 10 -13 15 0 6 5 7 12 3 7 -5 9 -2 5 8 -8
22 3 30 22 16 9 -7 13 -9 9 -4 -9 11 14 35 27 28 6 -3 4 1 -3 10 -14 18 -6 51
12 42 6 -3 4 1 -5 8 -14 11 -14 15 -2 26 7 7 10 18 7 24 -4 7 -2 8 5 4 6 -4 8
-12 5 -18 -4 -6 -2 -8 4 -4 5 3 13 0 16 -6 3 -7 3 -2 0 11 -4 17 -3 21 6 16 9
-6 9 -3 1 13 -10 19 -1 27 41 36 17 3 15 12 -2 13 -11 1 -20 -2 -20 -5 0 -4
-9 -8 -20 -9 -11 -1 -20 2 -20 8 0 5 3 8 8 7 4 0 18 4 32 10 22 9 23 11 5 13
-11 1 -24 1 -28 0 -5 -1 -6 2 -3 7 6 10 36 9 53 -1 6 -4 15 -3 18 3 4 6 1 9
-6 8 -7 -2 -13 3 -14 10 0 7 -7 17 -15 23 -12 8 -9 10 12 6 15 -2 25 -1 23 4
-3 4 -2 9 2 12 5 2 3 3 -3 1 -6 -1 -16 8 -24 19 -12 20 -12 21 3 8 15 -12 17
-10 17 13 0 24 3 26 23 21 17 -5 19 -4 7 4 -13 9 -12 12 5 26 13 10 15 14 5
13 -8 -2 -20 -10 -27 -18 -6 -8 -15 -12 -19 -7 -4 4 -2 7 4 7 7 0 12 4 12 10
0 5 -8 7 -17 4 -16 -5 -16 -4 0 6 18 11 18 13 0 33 -18 22 -18 22 3 4 20 -17
22 -17 45 2 13 11 18 20 12 21 -7 0 -13 -4 -13 -10 0 -5 -4 -10 -8 -10 -5 0
-9 14 -9 30 0 17 4 30 9 30 5 0 7 -4 3 -9 -3 -5 0 -13 6 -17 8 -4 9 -3 5 4 -4
7 -1 12 6 12 9 1 8 4 -3 10 -12 7 -15 20 -12 55 3 25 0 51 -6 59 -11 14 -5 26
13 26 6 0 5 -4 -3 -9 -9 -6 -10 -11 -2 -15 6 -4 11 -2 11 4 0 6 4 9 9 5 5 -3
13 0 17 6 4 8 3 9 -4 5 -7 -4 -12 -3 -12 3 0 5 5 13 10 16 8 5 7 12 -1 22 -10
12 -10 16 2 24 10 6 10 9 2 10 -28 3 -32 4 -40 12 -4 5 -3 8 2 7 23 -5 28 1
10 14 -18 13 -32 51 -14 40 7 -4 13 50 8 82 0 4 5 11 13 16 9 6 6 7 -9 3 -25
-7 -32 9 -8 19 8 3 15 11 15 18 0 10 -2 10 -8 1 -5 -8 -14 -6 -31 8 -13 10
-19 19 -14 19 5 0 10 7 11 15 1 8 3 22 4 30 1 9 7 14 15 11 21 -8 15 0 -13 19
-15 9 -24 13 -21 8 4 -5 0 -10 -8 -10 -8 0 -11 5 -7 11 3 6 5 19 4 29 -2 9 1
17 7 17 6 0 8 -8 5 -17 -5 -15 -4 -16 5 -3 8 11 7 18 -2 25 -16 14 -20 35 -5
35 6 0 3 6 -7 14 -11 8 -26 11 -35 8 -8 -3 -12 -2 -8 3 4 4 3 17 -3 28 -8 14
-8 18 0 13 6 -4 11 -2 11 3 0 6 -4 12 -10 12 -5 1 -14 2 -20 3 -5 0 -10 4 -10
9 0 4 0 12 0 19 0 6 6 4 13 -6 12 -16 14 -16 14 -3 0 18 -23 30 -38 21 -5 -3
-9 0 -9 5 0 6 8 11 18 11 11 1 4 8 -18 21 -21 12 -27 18 -15 17 14 -2 20 3 20
17 0 21 -33 28 -48 10 -5 -6 -7 -4 -4 5 2 8 9 15 15 15 5 0 14 4 19 8 4 5 3 8
-2 7 -24 -5 -34 1 -30 21 3 12 2 19 -2 15 -3 -3 -13 0 -22 6 -11 9 -10 6 2 -9
14 -16 15 -23 6 -29 -8 -5 -10 -3 -4 6 6 10 4 12 -9 7 -11 -4 -15 -3 -11 4 4
6 0 18 -8 27 -8 9 -14 33 -13 52 1 27 -3 36 -14 36 -9 0 -17 -9 -18 -21 -1
-14 1 -16 7 -7 7 11 10 10 14 -3 4 -9 3 -13 -3 -10 -6 3 -10 1 -10 -6 0 -24
-13 1 -16 33 -2 17 -10 35 -17 40 -6 4 -8 8 -3 8 5 0 3 6 -3 14 -9 11 -9 15 1
19 10 4 10 6 -1 6 -8 1 -23 9 -34 19 -11 9 -17 11 -13 5 4 -7 2 -13 -3 -13 -6
0 -11 6 -11 13 0 8 -4 7 -10 -3 -7 -11 -8 -6 -5 18 2 18 0 30 -5 27 -5 -3 -14
4 -20 15 -6 11 -14 19 -18 16 -10 -6 -37 16 -45 38 -4 10 -13 16 -21 13 -18
-7 -36 12 -29 32 3 10 2 12 -4 5 -4 -7 -22 -11 -38 -11 -28 1 -30 5 -29 34 0
18 -4 33 -9 33 -5 0 -6 -12 -3 -27 4 -19 3 -23 -2 -14 -8 11 -11 11 -16 0 -3
-8 -3 -4 -1 8 4 14 -1 26 -15 36 -11 7 -18 16 -15 19 10 10 -31 5 -44 -6 -12
-9 -13 -8 -9 6 4 9 0 24 -8 35 -14 17 -14 16 -4 -4 9 -19 8 -23 -4 -23 -8 0
-17 -6 -19 -12 -4 -10 -6 -10 -6 -1 -1 6 4 15 9 18 6 4 4 12 -6 22 -12 12 -18
13 -27 4 -7 -7 -7 -11 -2 -9 6 2 11 -1 13 -6 1 -6 -4 -11 -12 -12 -9 -1 -13 5
-11 17 4 22 -5 24 -24 7 -11 -10 -13 -10 -7 0 4 6 3 12 -3 12 -5 0 -12 -6 -15
-12 -3 -7 -4 -4 -3 6 1 10 -4 21 -12 24 -8 3 -11 0 -7 -6 3 -6 2 -13 -3 -17
-6 -3 -8 5 -5 20 4 24 3 25 -17 15 -19 -11 -20 -10 -15 12 4 17 2 15 -8 -6
-12 -27 -13 -27 -19 -7 -3 11 -1 19 4 15 5 -3 9 0 9 6 0 7 -7 9 -16 6 -9 -3
-18 -6 -21 -6 -3 0 1 -7 8 -17 13 -15 12 -15 -8 -2 -24 15 -31 31 -12 26 6 -1
14 5 16 13 3 9 1 11 -4 5 -11 -15 -32 -13 -44 5 -9 13 -10 12 -5 -2 7 -24 -2
-22 -26 5 -11 12 -17 16 -13 10 4 -9 -1 -13 -14 -13 -19 0 -26 -11 -22 -33 1
-5 -3 -6 -8 -2 -6 3 -7 13 -4 23 6 15 5 16 -13 2 -18 -14 -18 -14 -5 2 7 10
17 15 22 12 5 -3 9 0 9 6 0 7 -8 9 -22 4 -21 -6 -22 -6 -8 12 14 18 14 18 -2
5 -10 -7 -16 -17 -13 -21 3 -4 -3 -14 -13 -21 -15 -12 -16 -12 -5 2 7 9 10 19
6 22 -9 10 -25 9 -20 -1 3 -4 -8 -7 -23 -7 -16 -1 -27 2 -24 6 2 4 -8 7 -23 7
-45 -1 -55 1 -49 11 4 5 -5 8 -19 6 -15 -1 -29 4 -35 14 -6 10 -10 11 -10 4z
m100 -59 c0 -8 -19 -13 -24 -6 -3 5 1 9 9 9 8 0 15 -2 15 -3z m202 -11 c-6 -3
-9 -10 -6 -16 4 -7 1 -7 -7 1 -12 11 -12 14 1 22 8 5 17 6 20 3 3 -3 -1 -8 -8
-10z m43 -13 c-3 -5 -12 -10 -18 -10 -7 0 -6 4 3 10 19 12 23 12 15 0z m-835
-54 c0 -2 -8 -10 -17 -17 -16 -13 -17 -12 -4 4 13 16 21 21 21 13z m-123 -35
c-1 -14 -5 -17 -13 -10 -8 7 -13 6 -16 -3 -3 -8 -6 -7 -11 4 -4 13 -1 16 14
13 10 -2 19 0 19 6 0 5 2 9 4 9 3 0 4 -9 3 -19z m1292 -30 c17 -13 20 -20 12
-26 -7 -4 -15 -4 -18 -1 -4 3 0 6 8 6 12 0 12 2 -1 10 -8 5 -19 5 -25 0 -7 -6
-11 -2 -12 11 -2 24 5 24 36 0z m128 -107 c2 -13 1 -15 -4 -4 -3 8 -11 19 -17
23 -7 6 -6 7 4 4 8 -2 16 -12 17 -23z m43 -5 c0 -5 -4 -7 -10 -4 -5 3 -10 1
-10 -6 0 -7 -3 -10 -6 -6 -8 7 4 27 17 27 5 0 9 -5 9 -11z m-1720 -19 c-8 -5
-19 -10 -25 -10 -5 0 -3 5 5 10 8 5 20 10 25 10 6 0 3 -5 -5 -10z m1746 -15
c12 -8 24 -12 28 -10 3 3 4 2 1 -1 -2 -4 6 -15 18 -25 12 -10 20 -19 17 -19
-29 -7 -41 -8 -36 -3 9 10 -15 44 -26 37 -7 -4 -8 -3 -4 4 6 11 -6 16 -26 13
-5 0 -8 4 -8 9 0 14 12 12 36 -5z m-1871 -95 c4 -6 1 -9 -6 -8 -7 2 -14 -3
-15 -9 -3 -23 -4 -24 -15 -18 -7 5 -4 14 7 26 20 22 21 22 29 9z m1999 -15
c14 -21 14 -24 1 -19 -8 4 -15 14 -16 23 0 13 -2 12 -8 -3 -6 -17 -8 -17 -14
-3 -3 8 -1 18 6 21 7 2 13 5 13 5 1 1 9 -10 18 -24z m183 -239 c0 -8 -6 -12
-15 -9 -11 5 -11 7 0 14 7 5 13 9 14 9 0 0 1 -6 1 -14z m-2417 -120 c0 -3 -4
-8 -10 -11 -5 -3 -10 -1 -10 4 0 6 5 11 10 11 6 0 10 -2 10 -4z m2504 -65 c3
-5 -1 -11 -9 -15 -8 -3 -17 0 -21 6 -4 7 -3 8 4 4 7 -4 12 -2 12 3 0 13 7 14
14 2z m3 -36 c0 -8 -4 -15 -9 -15 -10 0 -11 14 -1 23 9 10 10 9 10 -8z m29
-90 c-1 -8 -6 -18 -11 -22 -4 -4 -5 -2 -1 5 4 7 2 12 -6 12 -9 0 -9 3 2 10 19
12 19 13 16 -5z m7 -110 c-7 -21 -12 -19 -10 4 0 11 5 18 9 15 4 -3 5 -11 1
-19z m20 -40 c-3 -9 -8 -14 -10 -11 -3 3 -2 9 2 15 9 16 15 13 8 -4z m-2690
-25 c-3 -11 -9 -20 -15 -20 -5 0 -4 9 2 20 6 11 12 20 14 20 2 0 2 -9 -1 -20z
m-2 -69 c-17 -19 -24 -18 -27 2 -1 7 9 13 21 13 21 2 22 1 6 -15z m14 -31 c3
-5 1 -10 -4 -10 -6 0 -11 5 -11 10 0 6 2 10 4 10 3 0 8 -4 11 -10z m2700 -30
c-4 -6 -1 -17 5 -25 14 -17 14 -17 -17 -20 -12 -1 -20 2 -17 7 3 4 10 5 16 2
6 -4 8 -1 6 7 -3 8 -12 13 -19 11 -8 -1 -5 4 5 13 23 18 30 19 21 5z m-44
-193 c-10 -9 -11 -8 -5 6 3 10 9 15 12 12 3 -3 0 -11 -7 -18z m-31 -253 c0 -8
-19 -13 -24 -6 -3 5 1 9 9 9 8 0 15 -2 15 -3z m-55 -104 c3 -6 -1 -7 -9 -4
-18 7 -21 14 -7 14 6 0 13 -4 16 -10z m-2438 -75 c0 -8 -4 -12 -9 -9 -5 3 -6
10 -3 15 9 13 12 11 12 -6z m2378 -47 c-9 -6 -19 -7 -22 -4 -4 3 -1 6 6 6 7 0
9 4 6 10 -4 6 1 7 11 3 15 -6 15 -7 -1 -15z m-2335 -17 c0 -3 -5 -13 -11 -21
-9 -13 -10 -13 -6 1 3 9 0 22 -6 28 -9 9 -8 11 6 6 9 -4 17 -10 17 -14z m65
-60 c3 -5 2 -12 -3 -15 -5 -3 -9 1 -9 9 0 17 3 19 12 6z m2165 -59 c0 -5 -7
-9 -15 -9 -8 0 -12 4 -9 9 3 4 9 8 15 8 5 0 9 -4 9 -8z m-2120 -16 c0 -2 -7
-9 -15 -16 -13 -11 -14 -10 -9 4 5 14 24 23 24 12z m60 -70 c0 -3 -4 -8 -10
-11 -5 -3 -10 -1 -10 4 0 6 5 11 10 11 6 0 10 -2 10 -4z m1925 -86 c3 -6 -1
-7 -9 -4 -18 7 -21 14 -7 14 6 0 13 -4 16 -10z m-1660 -150 c-4 -6 6 -8 24 -6
21 2 28 -1 24 -10 -4 -12 -32 -12 -53 1 -10 6 -5 25 6 25 3 0 2 -4 -1 -10z
m90 -19 c3 -5 2 -12 -3 -15 -5 -3 -9 1 -9 9 0 17 3 19 12 6z m42 -46 c0 -8 -4
-12 -9 -9 -4 3 -8 9 -8 15 0 5 4 9 8 9 5 0 9 -7 9 -15z m1168 -19 c-17 -12
-45 -12 -45 1 0 3 7 3 15 0 8 -4 17 -2 20 3 4 6 11 10 18 10 6 0 2 -6 -8 -14z
m-50 -16 c3 -5 1 -10 -4 -10 -6 0 -11 5 -11 10 0 6 2 10 4 10 3 0 8 -4 11 -10z
m-770 -68 c-3 -3 -11 0 -18 7 -9 10 -8 11 6 5 10 -3 15 -9 12 -12z m-21 -10
c3 -5 -1 -9 -9 -9 -8 0 -12 4 -9 9 3 4 7 8 9 8 2 0 6 -4 9 -8z m189 -7 c9 -21
-9 -27 -24 -8 -10 12 -10 14 -1 9 6 -4 12 -2 12 3 0 16 7 13 13 -4z"/>
<path d="M1387 2753 c3 -7 9 -13 13 -13 4 0 10 6 13 13 3 7 -3 13 -13 13 -10
0 -16 -6 -13 -13z"/>
<path d="M1551 2754 c0 -11 3 -14 6 -6 3 7 2 16 -1 19 -3 4 -6 -2 -5 -13z"/>
<path d="M1614 2756 c3 -25 12 -28 27 -9 7 10 9 15 5 11 -5 -4 -15 -3 -22 3
-9 7 -12 6 -10 -5z"/>
<path d="M1186 2751 c-8 -13 4 -42 15 -35 5 3 9 10 9 15 0 6 -5 7 -12 3 -8 -5
-9 -2 -5 9 7 18 2 23 -7 8z"/>
<path d="M1355 2750 c3 -5 8 -10 11 -10 2 0 4 5 4 10 0 6 -5 10 -11 10 -5 0
-7 -4 -4 -10z"/>
<path d="M1576 2748 c3 -5 10 -6 15 -3 13 9 11 12 -6 12 -8 0 -12 -4 -9 -9z"/>
<path d="M1051 2708 c-1 -20 0 -21 23 -12 9 3 16 11 16 16 0 6 -6 6 -14 -1
-11 -9 -15 -9 -19 1 -4 8 -6 7 -6 -4z"/>
<path d="M1960 2675 c8 -11 15 -21 16 -23 1 -2 5 5 8 15 4 9 4 14 0 10 -4 -4
-14 -1 -23 6 -14 11 -15 10 -1 -8z"/>
<path d="M923 2655 c0 -8 4 -12 9 -9 5 3 6 10 3 15 -9 13 -12 11 -12 -6z"/>
<path d="M1990 2649 c0 -5 5 -7 10 -4 6 3 10 8 10 11 0 2 -4 4 -10 4 -5 0 -10
-5 -10 -11z"/>
<path d="M2226 2522 c-3 -5 1 -9 9 -9 8 0 15 4 15 9 0 4 -4 8 -9 8 -6 0 -12
-4 -15 -8z"/>
<path d="M2350 2456 c0 -2 7 -7 16 -10 8 -3 12 -2 9 4 -6 10 -25 14 -25 6z"/>
<path d="M531 2416 c-7 -8 -8 -17 -3 -20 6 -3 15 1 21 8 7 8 8 17 3 20 -6 3
-15 -1 -21 -8z"/>
<path d="M356 2253 c-6 -14 -5 -15 5 -6 7 7 10 15 7 18 -3 3 -9 -2 -12 -12z"/>
<path d="M2571 2224 c0 -11 3 -14 6 -6 3 7 2 16 -1 19 -3 4 -6 -2 -5 -13z"/>
<path d="M330 2194 c0 -16 -2 -17 -10 -4 -6 9 -10 10 -10 3 0 -19 20 -26 26
-8 4 9 4 19 0 22 -3 4 -6 -2 -6 -13z"/>
<path d="M2562 2191 c5 -17 45 -22 45 -6 0 6 -6 12 -14 12 -7 0 -13 -5 -13
-11 0 -6 -5 -4 -11 4 -8 12 -10 12 -7 1z"/>
<path d="M291 2168 c19 -15 14 -39 -7 -31 -8 3 -14 3 -14 0 0 -15 30 -13 44 2
15 16 14 19 -11 30 -23 9 -25 9 -12 -1z"/>
<path d="M2676 2052 c-3 -5 1 -9 9 -9 8 0 12 4 9 9 -3 4 -7 8 -9 8 -2 0 -6 -4
-9 -8z"/>
<path d="M210 2006 c7 -7 14 -6 21 1 9 9 7 12 -9 10 -14 -1 -18 -5 -12 -11z"/>
<path d="M2725 1930 c-3 -5 -1 -10 4 -10 6 0 11 5 11 10 0 6 -2 10 -4 10 -3 0
-8 -4 -11 -10z"/>
<path d="M120 1856 c0 -3 9 -10 20 -16 11 -6 20 -8 20 -6 0 3 -9 10 -20 16
-11 6 -20 8 -20 6z"/>
<path d="M2789 1738 c-11 -38 1 -57 22 -32 10 12 10 15 -2 12 -8 -2 -13 3 -11
10 2 10 -6 19 -9 10z"/>
<path d="M55 1601 c-3 -5 -2 -12 3 -15 5 -3 9 1 9 9 0 17 -3 19 -12 6z"/>
<path d="M2813 1541 c-10 -16 -9 -20 4 -25 10 -4 14 -2 10 8 -3 7 0 19 6 25 6
6 7 11 1 11 -5 0 -15 -9 -21 -19z"/>
<path d="M67 1429 c7 -7 15 -10 18 -7 3 3 -2 9 -12 12 -14 6 -15 5 -6 -5z"/>
<path d="M2833 1363 c-17 -6 -17 -20 0 -20 8 0 14 6 14 14 0 7 -1 13 -1 12 -1
0 -7 -3 -13 -6z"/>
<path d="M2813 1285 c0 -8 4 -12 9 -9 4 3 8 9 8 15 0 5 -4 9 -8 9 -5 0 -9 -7
-9 -15z"/>
<path d="M2785 1170 c-3 -6 1 -7 9 -4 18 7 21 14 7 14 -6 0 -13 -4 -16 -10z"/>
<path d="M153 995 c0 -8 4 -15 9 -15 5 0 6 -5 2 -12 -4 -7 -3 -8 4 -4 9 5 9
13 2 27 -13 23 -17 24 -17 4z"/>
<path d="M2687 840 c10 -11 19 -20 21 -20 1 0 -2 9 -8 20 -6 11 -15 20 -20 20
-6 0 -2 -9 7 -20z"/>
<path d="M2598 693 c7 -3 16 -2 19 1 4 3 -2 6 -13 5 -11 0 -14 -3 -6 -6z"/>
<path d="M2563 677 c-9 -14 -13 -37 -7 -37 2 0 13 9 23 19 16 16 17 21 6 25
-8 3 -18 0 -22 -7z"/>
<path d="M2500 595 c-8 -9 -8 -15 -2 -15 12 0 26 19 19 26 -2 2 -10 -2 -17
-11z"/>
<path d="M463 514 c0 -7 7 -9 16 -6 14 5 14 3 3 -10 -9 -11 -10 -18 -2 -23 6
-4 10 -3 9 2 -1 4 0 10 1 13 8 23 5 36 -10 36 -9 0 -17 -6 -17 -12z"/>
<path d="M2430 509 c0 -5 5 -7 10 -4 6 3 10 8 10 11 0 2 -4 4 -10 4 -5 0 -10
-5 -10 -11z"/>
<path d="M520 466 c0 -8 4 -17 9 -20 5 -4 7 3 4 14 -6 23 -13 26 -13 6z"/>
<path d="M2345 451 c-6 -11 13 -26 22 -17 4 3 1 6 -6 6 -7 0 -9 5 -6 10 3 6 4
10 1 10 -3 0 -7 -4 -11 -9z"/>
<path d="M559 447 c-4 -13 -6 -37 -2 -37 2 0 11 6 18 14 12 12 12 15 0 20 -8
3 -15 4 -16 3z"/>
<path d="M2265 380 c-3 -5 1 -10 10 -10 9 0 13 5 10 10 -3 6 -8 10 -10 10 -2
0 -7 -4 -10 -10z"/>
<path d="M2207 333 c3 -7 9 -10 14 -7 14 8 11 21 -5 21 -8 0 -12 -6 -9 -14z"/>
<path d="M835 230 c3 -5 8 -10 11 -10 2 0 4 5 4 10 0 6 -5 10 -11 10 -5 0 -7
-4 -4 -10z"/>
<path d="M990 196 c0 -9 5 -16 10 -16 6 0 10 4 10 9 0 6 -4 13 -10 16 -5 3
-10 -1 -10 -9z"/>
<path d="M1762 151 c-11 -7 -11 -9 0 -14 9 -3 15 1 15 9 0 8 -1 14 -1 14 -1 0
-7 -4 -14 -9z"/>
<path d="M1316 113 c-6 -14 -5 -15 5 -6 7 7 10 15 7 18 -3 3 -9 -2 -12 -12z"/>
<path d="M1411 114 c0 -11 3 -14 6 -6 3 7 2 16 -1 19 -3 4 -6 -2 -5 -13z"/>
</g>
</svg>
